<svg xmlns="http://www.w3.org/2000/svg" width="2000" height="1500">
  <path fill="#0080ff" d="M0 0h2000v1500H0z"/>
  <g transform="matrix(.75 0 0 .75 250.86 432.3)">
    <svg xmlns="http://www.w3.org/2000/svg" xmlns:xlink="http://www.w3.org/1999/xlink" width="2000" height="843" data-background-color="#0080ff" viewBox="0 0 223 94">
      <g transform="translate(-.13 .24)">
        <svg width="223.26" height="93.53" viewBox="0 0 223.26 93.53">
          <g>
            <svg width="223.26" height="93.53" viewBox="0 0 223.26 93.53">
              <g>
                <svg width="223.26" height="93.53" viewBox="0 0 223.26 93.53">
                  <g>
                    <svg width="223.26" height="93.53" viewBox="0 0 223.26 93.53">
                      <g>
                        <svg width="223.26" height="59.14" viewBox="0 0 223.26 59.14">
                          <g>
                            <svg/>
                          </g>
                          <g>
                            <svg>
                              <g>
                                <svg/>
                              </g>
                            </svg>
                          </g>
                          <g>
                            <svg width="223.26" height="59.14" viewBox="0 0 223.26 59.14">
                              <g>
                                <svg width="149.91" height="59.14" data-palette-color="#ffffff" viewBox="2.7 -35.65 92.64 36.55">
                                  <path fill="#fff" d="M30.15-34.75V0H18.5L9.7-26.15l.15 1.05q.5 3.45.78 6.47.27 3.03.27 6.88V0H2.7v-34.75h11.4L23.2-8.5q-.6-3.75-.92-6.75-.33-3-.33-6.9v-12.6h8.2Zm19.95-.9q7.55 0 11.75 4.8t4.2 13.45q0 5.65-1.88 9.77Q62.3-3.5 58.7-1.3 55.1.9 50.1.9q-7.55 0-11.73-4.8-4.17-4.8-4.17-13.5 0-5.65 1.87-9.75 1.88-4.1 5.45-6.3 3.58-2.2 8.58-2.2Zm0 6.65q-3.25 0-4.78 2.7-1.52 2.7-1.52 8.9t1.55 8.93q1.55 2.72 4.75 2.72 3.3 0 4.8-2.7t1.5-8.95q0-6.2-1.5-8.9T50.1-29Zm31.95-6.65q3.95 0 6.97 1.15 3.03 1.15 5.42 3.45l-4.14 4.9Q86.69-29 82.75-29q-2.06 0-3.13.77-1.07.78-1.07 2.18 0 1 .54 1.65.55.65 1.85 1.25 1.31.6 4.11 1.5 5.34 1.7 7.82 4.27 2.47 2.58 2.47 7.13 0 3.3-1.7 5.83-1.7 2.52-4.92 3.92Q85.5.9 81.14.9q-8.3 0-13.55-5.05l4.55-5.05q4.16 3.4 8.66 3.4 2.34 0 3.64-1.03 1.31-1.02 1.31-2.72 0-1.2-.5-1.98-.5-.77-1.78-1.4-1.28-.62-3.72-1.37-5.91-1.85-8.31-4.45-2.39-2.6-2.39-6.55 0-3.1 1.67-5.45t4.65-3.63q2.97-1.27 6.68-1.27Z" class="wordmark-text-0" data-fill-palette-color="primary"/>
                                </svg>
                              </g>
                              <g>
                                <svg xmlns="http://www.w3.org/2000/svg" xmlns:xlink="http://www.w3.org/1999/xlink" xml:space="preserve" width="59.39" height="59.14" x="163.87" class="icon-s-0" data-fill-palette-color="accent" style="enable-background:new 0 0 50 50" viewBox="1 1.1 48 47.8">
                                  <path fill="#fff" d="M1 1.1v47.8h48V1.1H1zM8.6 41l7.3-7.3-7.3-7.3L10 25l8.6 8.6-8.6 8.7L8.6 41zM29 42.6H17.3v-1.9H29v1.9z" data-fill-palette-color="accent"/>
                                </svg>
                              </g>
                            </svg>
                          </g>
                        </svg>
                      </g>
                      <g transform="translate(0 73.1)">
                        <svg width="131.07" height="20.43" viewBox="0 0 131.07 20.43">
                          <g>
                            <svg width="131.07" height="20.43" data-palette-color="#ffffff" viewBox="2.05 -35.35 229.98 35.85">
                              <path fill="#fff" d="M13.7-3.95q2.9 0 4.9-2.2 2-2.2 2-6.7 0-4.35-2.07-6.45-2.08-2.1-4.68-2.1-2.95 0-4.85 2.33-1.9 2.32-1.9 6.62 0 3.8 1.87 6.15 1.88 2.35 4.73 2.35Zm6.9-17.55v-13.85h4.95V0H20.6v-3.85Q17.95.35 12.85.35q-5 0-7.9-3.78-2.9-3.77-2.9-9.12 0-5.95 3.05-9.55 3.05-3.6 7.85-3.6 4.95 0 7.65 4.2Zm15.35 7H48.2v-.9q-.1-2.85-1.55-4.53-1.45-1.67-4.15-1.67-2.5 0-4.3 1.82-1.8 1.83-2.25 5.28Zm15.4 8.75v4.4q-2.8 1.6-7.4 1.6-5.9 0-9.4-3.55t-3.5-9.3q0-6.1 3.2-9.58 3.2-3.47 8.15-3.47 4.85 0 7.7 3.02 2.85 3.03 2.85 8.73 0 1.55-.3 3.25H36q.5 3.3 2.8 5.05t5.8 1.75q4.05 0 6.75-1.9Zm11-6.8q.1 3.85 2.35 6.32 2.25 2.48 6.3 2.48 3 0 5.59-1.65V-1Q74.15.5 70.34.5q-5.94 0-9.49-3.75T57.3-12.6q0-5.45 3.57-9.33 3.58-3.87 9.68-3.87 3.29 0 6.04 1.4v4.5q-2.44-1.55-5.54-1.55-3.96 0-6.33 2.5t-2.37 6.4Zm30.49 13q-5.6 0-8.8-3.65-3.2-3.65-3.2-9.25 0-5.7 3.3-9.48 3.3-3.77 8.7-3.77 5.8 0 8.95 3.67 3.15 3.68 3.15 9.38 0 5.7-3.22 9.4-3.23 3.7-8.88 3.7Zm-.05-22q-3.25 0-5.05 2.57-1.8 2.58-1.8 6.38 0 3.75 1.85 6.32 1.85 2.58 5.05 2.58 3.4 0 5.18-2.5 1.77-2.5 1.77-6.35 0-3.95-1.7-6.48-1.7-2.52-5.3-2.52Zm17.65-3.8h4.9v4.45q1.85-4.7 6.65-4.7.7 0 1.55.15v4.8q-1.05-.45-2.35-.45-2.55 0-4.2 2.25-1.65 2.25-1.65 5.35V0h-4.9v-25.35Zm30.3 16.9v-2.85h-3.8q-2.8 0-4.23 1.1-1.42 1.1-1.42 2.8 0 1.75 1.1 2.75t3.2 1q2.4 0 3.77-1.33 1.38-1.32 1.38-3.47ZM127.99-19.3v-4.75q2.95-1.7 7.8-1.7 9.95 0 9.95 9.65V0h-4.85v-3Q138.94.2 134.04.2q-3.6 0-5.78-2.08-2.17-2.07-2.17-5.27 0-3.65 2.75-5.68 2.75-2.02 7.7-2.02h4.2v-1.45q0-2.6-1.25-3.93-1.25-1.32-4.15-1.32-4.05 0-7.35 2.25Zm37.35-2.25h-6.65V-7.6q0 3.65 3.5 3.65 2.05 0 3.45-1.1v4.4q-1.65.9-4.05.9-7.85 0-7.85-7.95v-13.85h-3.95v-3.8h3.95v-6.2h4.95v6.2h6.65v3.8Zm16.29 22q-5.6 0-8.8-3.65-3.2-3.65-3.2-9.25 0-5.7 3.3-9.48 3.3-3.77 8.7-3.77 5.8 0 8.95 3.67 3.15 3.68 3.15 9.38 0 5.7-3.22 9.4-3.23 3.7-8.88 3.7Zm-.05-22q-3.25 0-5.05 2.57-1.8 2.58-1.8 6.38 0 3.75 1.85 6.32 1.85 2.58 5.05 2.58 3.4 0 5.18-2.5 1.77-2.5 1.77-6.35 0-3.95-1.7-6.48-1.7-2.52-5.3-2.52Zm17.65-3.8h4.9v4.45q1.85-4.7 6.65-4.7.7 0 1.55.15v4.8q-1.05-.45-2.35-.45-2.55 0-4.2 2.25-1.65 2.25-1.65 5.35V0h-4.9v-25.35Zm31.4.85v4.45q-2.45-1.45-6.3-1.45-1.75 0-2.78.8-1.02.8-1.02 2.1 0 .35.07.67.08.33.28.65.2.33.37.55.18.23.58.48.4.25.62.42.23.18.75.43l.78.37q.25.13.87.4l.88.38q2.95 1.3 4.62 2.92 1.68 1.63 1.68 4.33 0 3.4-2.4 5.32-2.4 1.93-6.5 1.93-4.5 0-7.5-1.5V-5.9q3.5 2.15 7.25 2.15 1.95 0 3.02-.8 1.08-.8 1.08-2.1 0-1.1-.85-1.98-.85-.87-1.73-1.3-.87-.42-2.97-1.32-5.95-2.45-5.95-7.2 0-3.35 2.5-5.25t6.25-1.9q4.1 0 6.4 1.1Z" class="slogan-text-1" data-fill-palette-color="secondary"/>
                            </svg>
                          </g>
                        </svg>
                      </g>
                    </svg>
                  </g>
                </svg>
              </g>
            </svg>
          </g>
        </svg>
      </g>
    </svg>
  </g>
</svg>
